<svg id="Capa_1" enable-background="new 0 0 510 510" height="512" viewBox="0 0 510 510" width="512" xmlns="http://www.w3.org/2000/svg" xmlns:xlink="http://www.w3.org/1999/xlink"><linearGradient id="SVGID_1_" gradientUnits="userSpaceOnUse" x1="189.169" x2="283.169" y1="46.9" y2="484.9"><stop offset="0" stop-color="#ff9100"/><stop offset="1" stop-color="#e63950"/></linearGradient><linearGradient id="SVGID_2_" gradientUnits="userSpaceOnUse" x1="255" x2="255" y1="288.049" y2="462.357"><stop offset="0" stop-color="#fdbf00"/><stop offset="1" stop-color="#ff9100"/></linearGradient><linearGradient id="lg1"><stop offset="0" stop-color="#e63950" stop-opacity="0"/><stop offset=".0467" stop-color="#e4354b" stop-opacity=".047"/><stop offset=".4669" stop-color="#d31822" stop-opacity=".467"/><stop offset=".7991" stop-color="#c90709" stop-opacity=".799"/><stop offset="1" stop-color="#c50000"/></linearGradient><linearGradient id="SVGID_3_" gradientUnits="userSpaceOnUse" x1="356.352" x2="259.261" xlink:href="#lg1" y1="396.45" y2="192.293"/><linearGradient id="SVGID_4_" gradientUnits="userSpaceOnUse" x1="142.182" x2="-113.56" xlink:href="#lg1" y1="394.843" y2="235.163"/><linearGradient id="SVGID_5_" gradientUnits="userSpaceOnUse" x1="244.869" x2="-10.873" xlink:href="#lg1" y1="390.486" y2="230.805"/><linearGradient id="SVGID_6_" gradientUnits="userSpaceOnUse" x1="357.841" x2="101.245" xlink:href="#lg1" y1="392.722" y2="232.508"/><linearGradient id="SVGID_7_" gradientUnits="userSpaceOnUse" x1="441.836" x2="278.207" xlink:href="#lg1" y1="376.868" y2="274.701"/><linearGradient id="lg2"><stop offset="0" stop-color="#edf5ff"/><stop offset="1" stop-color="#d5e8fe"/></linearGradient><linearGradient id="SVGID_8_" gradientUnits="userSpaceOnUse" x1="64.768" x2="113.767" xlink:href="#lg2" y1="327.059" y2="376.058"/><linearGradient id="SVGID_9_" gradientUnits="userSpaceOnUse" x1="174.158" x2="223.157" xlink:href="#lg2" y1="327.059" y2="376.058"/><linearGradient id="SVGID_10_" gradientUnits="userSpaceOnUse" x1="283.548" x2="332.547" xlink:href="#lg2" y1="327.059" y2="376.058"/><linearGradient id="SVGID_11_" gradientUnits="userSpaceOnUse" x1="392.938" x2="441.937" xlink:href="#lg2" y1="327.059" y2="376.058"/><linearGradient id="SVGID_12_" gradientUnits="userSpaceOnUse" x1="200.292" x2="269.872" y1="71.501" y2="141.08"><stop offset="0" stop-color="#edf5ff"/><stop offset="1" stop-color="#b5dbff"/></linearGradient><linearGradient id="SVGID_13_" gradientUnits="userSpaceOnUse" x1="251.322" x2="251.322" y1="131.627" y2="-65.728"><stop offset="0" stop-color="#b5dbff" stop-opacity="0"/><stop offset=".2428" stop-color="#93cef6" stop-opacity=".243"/><stop offset=".5763" stop-color="#6abfec" stop-opacity=".576"/><stop offset=".8403" stop-color="#51b5e5" stop-opacity=".84"/><stop offset="1" stop-color="#48b2e3"/></linearGradient><linearGradient id="lg3"><stop offset="0" stop-color="#ff637b"/><stop offset="1" stop-color="#e63950"/></linearGradient><linearGradient id="SVGID_14_" gradientTransform="matrix(.363 .932 -.932 .363 -271.949 -1557.045)" gradientUnits="userSpaceOnUse" x1="1788.401" x2="1796.056" xlink:href="#lg3" y1="7.194" y2="7.194"/><linearGradient id="SVGID_15_" gradientTransform="matrix(-.518 .856 -.856 -.518 677.58 -2325.759)" gradientUnits="userSpaceOnUse" x1="2265.838" x2="2273.494" xlink:href="#lg3" y1="-1012.507" y2="-1012.507"/><linearGradient id="SVGID_16_" gradientTransform="matrix(-.96 -.279 -.279 .96 1670.215 218.971)" gradientUnits="userSpaceOnUse" x1="1297.626" x2="1305.281" xlink:href="#lg3" y1="249.208" y2="249.208"/><linearGradient id="lg4"><stop offset="0" stop-color="#ffda2d"/><stop offset="1" stop-color="#fdbf00"/></linearGradient><linearGradient id="SVGID_17_" gradientUnits="userSpaceOnUse" x1="200.312" x2="292" xlink:href="#lg4" y1="170.187" y2="261.875"/><linearGradient id="SVGID_18_" gradientUnits="userSpaceOnUse" x1="295.081" x2="203.622" xlink:href="#lg4" y1="260.426" y2="168.967"/><linearGradient id="SVGID_19_" gradientUnits="userSpaceOnUse" x1="286.411" x2="214.735" y1="251.763" y2="180.087"><stop offset="0" stop-color="#0b799d"/><stop offset="1" stop-color="#07485e"/></linearGradient><linearGradient id="SVGID_20_" gradientUnits="userSpaceOnUse" x1="255" x2="255" y1="282.671" y2="310.286"><stop offset="0" stop-color="#ff9100" stop-opacity="0"/><stop offset="1" stop-color="#ff9100"/></linearGradient><linearGradient id="SVGID_21_" gradientUnits="userSpaceOnUse" x1="255" x2="255" xlink:href="#lg1" y1="426.151" y2="469.441"/><g><g><path d="m487.362 243.662h-464.724c-12.503 0-22.638 10.136-22.638 22.638v174.692c0 12.502 10.135 22.638 22.638 22.638h464.724c12.503 0 22.638-10.135 22.638-22.638v-174.692c0-12.502-10.135-22.638-22.638-22.638z" fill="url(#SVGID_1_)"/><path d="m464.723 270.934h-419.446c-10.259 0-18.575 8.316-18.575 18.575v128.273c0 10.259 8.316 18.575 18.575 18.575h419.445c10.259 0 18.575-8.316 18.575-18.575v-128.273c.001-10.259-8.315-18.575-18.574-18.575z" fill="url(#SVGID_2_)"/><path d="m160.499 304.81 158.82 158.82h168.044c12.503 0 22.638-10.135 22.638-22.638v-45.771l-151.559-151.559h-204.882v43.277c0 7.309 1.511 13.798 6.939 17.871z" fill="url(#SVGID_3_)"/><g><path d="m242.505 436.36h-136.865l-44.671-44.67c-3.151-1.933-4.68-4.953-4.68-8.879 0-2.84 1.086-5.239 2.614-6.994l7.077-9.072-18.103-18.58c-3.855-1.635-4.704-5.609-4.704-10.598 0-5.681 4.024-11.029 11.018-11.029.656 0 1.754 0 3.282.656l23.951 7.435-1.098-23.294c.227-7.22 4.692-9.49 10.802-9.49 4.595 0 8.7.837 10.55 4.812l22.077 21.313s3.451-1.432 4.537-1.432c3.938 0 7.137 1.446 9.118 4.728l35.935 35.935z" fill="url(#SVGID_4_)"/><path d="m351.896 436.36h-136.865l-44.671-44.671c-3.151-1.933-4.68-4.953-4.68-8.879 0-2.84 1.086-5.239 2.614-6.994l7.077-9.072-18.103-18.58c-3.855-1.635-4.704-5.609-4.704-10.598 0-5.681 4.024-11.029 11.017-11.029.656 0 1.754 0 3.282.656l23.951 7.435-1.098-23.294c.227-7.22 4.692-10.49 10.803-10.49 4.595 0 8.688 1.838 10.55 5.812l21.076 20.312 2.256-.776c1.098-.43 2.196-.656 3.282-.656 3.938 0 7.137 2.447 9.118 5.729z" fill="url(#SVGID_5_)"/><path d="m461.276 436.36h-136.853l-44.671-44.671c-3.151-1.933-5.693-4.953-5.693-8.879 0-2.84 1.098-5.239 2.626-6.994l6.051-8.617 1.026-1.456-17.114-17.579c-3.843-1.635-5.705-5.609-5.705-10.598 0-5.681 5.036-12.03 12.03-12.03.656 0 1.742 0 3.282.656l22.95 7.435-1.098-22.294c.227-7.22 5.681-10.49 11.803-10.49 4.595 0 8.688 1.838 10.55 5.812l21.076 20.312 2.255-.776c1.098-.43 2.184-.656 3.282-.656 3.938 0 7.125 2.447 9.118 5.729l35.935 35.935z" fill="url(#SVGID_6_)"/><path d="m483.295 348.976v68.802c0 10.264-8.318 18.582-18.57 18.582h-30.922l-44.671-44.671c-3.139-1.933-5.681-4.953-5.681-8.879 0-2.84 1.098-5.239 2.626-6.994l6.051-8.617 1.027-1.456-17.114-17.579c-3.843-1.635-5.704-5.609-5.704-10.598 0-5.681 5.036-12.03 12.03-12.03.656 0 1.742 0 3.27.656l22.962 7.435-1.098-22.294c.215-7.22 5.681-10.49 11.803-10.49 4.595 0 8.688 1.838 10.55 5.812l21.064 20.312 2.268-.776c1.098-.43 2.184-.656 3.282-.656 3.938 0 7.125 2.447 9.118 5.729z" fill="url(#SVGID_7_)"/><g><path d="m125.235 376.037c1.093 1.311 1.748 3.935 1.748 6.339 0 6.995-6.995 11.804-13.334 11.804-2.404 0-5.901-.437-8.306-4.153l-14.209-21.86-14.427 22.078c-1.967 3.279-4.59 3.935-7.651 3.935-5.247 0-13.771-4.153-13.771-11.367 0-2.841 1.093-5.246 2.623-6.995l14.427-20.548-22.733-6.558c-5.028-1.093-7.433-5.465-7.433-11.148 0-5.684 5.028-12.023 12.023-12.023.656 0 1.749 0 3.279.656l22.953 7.432-1.094-22.296c.219-7.213 5.684-10.492 11.804-10.492 6.121 0 11.367 3.279 11.586 10.492l-.875 22.734 23.171-7.87c1.093-.437 2.186-.656 3.279-.656 6.777 0 11.367 7.214 11.367 13.553 0 4.372-2.186 8.525-7.432 9.618l-22.297 5.246z" fill="url(#SVGID_8_)"/></g><g><path d="m234.625 376.037c1.093 1.311 1.748 3.935 1.748 6.339 0 6.995-6.995 11.804-13.334 11.804-2.404 0-5.901-.437-8.306-4.153l-14.209-21.86-14.427 22.078c-1.967 3.279-4.59 3.935-7.651 3.935-5.247 0-13.771-4.153-13.771-11.367 0-2.841 1.093-5.246 2.623-6.995l14.427-20.548-22.733-6.558c-5.028-1.093-7.433-5.465-7.433-11.148 0-5.684 5.028-12.023 12.023-12.023.656 0 1.749 0 3.279.656l22.953 7.432-1.094-22.296c.219-7.213 5.684-10.492 11.804-10.492 6.121 0 11.367 3.279 11.586 10.492l-.875 22.734 23.171-7.87c1.093-.437 2.186-.656 3.279-.656 6.777 0 11.367 7.214 11.367 13.553 0 4.372-2.186 8.525-7.432 9.618l-22.297 5.246z" fill="url(#SVGID_9_)"/></g><g><path d="m344.015 376.037c1.093 1.311 1.748 3.935 1.748 6.339 0 6.995-6.995 11.804-13.334 11.804-2.404 0-5.901-.437-8.306-4.153l-14.209-21.86-14.427 22.078c-1.967 3.279-4.59 3.935-7.651 3.935-5.247 0-13.771-4.153-13.771-11.367 0-2.841 1.093-5.246 2.623-6.995l14.427-20.548-22.733-6.558c-5.028-1.093-7.433-5.465-7.433-11.148 0-5.684 5.028-12.023 12.023-12.023.656 0 1.749 0 3.279.656l22.953 7.432-1.094-22.296c.219-7.213 5.684-10.492 11.804-10.492 6.121 0 11.367 3.279 11.586 10.492l-.875 22.734 23.171-7.87c1.093-.437 2.186-.656 3.279-.656 6.777 0 11.367 7.214 11.367 13.553 0 4.372-2.186 8.525-7.432 9.618l-22.297 5.246z" fill="url(#SVGID_10_)"/></g><g><path d="m453.405 376.037c1.093 1.311 1.748 3.935 1.748 6.339 0 6.995-6.995 11.804-13.334 11.804-2.404 0-5.901-.437-8.306-4.153l-14.209-21.86-14.427 22.078c-1.967 3.279-4.59 3.935-7.651 3.935-5.247 0-13.771-4.153-13.771-11.367 0-2.841 1.093-5.246 2.623-6.995l14.427-20.548-22.733-6.558c-5.028-1.093-7.433-5.465-7.433-11.148 0-5.684 5.028-12.023 12.023-12.023.656 0 1.749 0 3.279.656l22.953 7.432-1.094-22.296c.219-7.213 5.684-10.492 11.804-10.492 6.121 0 11.367 3.279 11.586 10.492l-.875 22.734 23.171-7.87c1.093-.437 2.186-.656 3.279-.656 6.777 0 11.367 7.214 11.367 13.553 0 4.372-2.186 8.525-7.432 9.618l-22.297 5.246z" fill="url(#SVGID_11_)"/></g></g></g><g><path d="m319.72 126.273h-.246c-6.776 0-12.724-4.333-15.001-10.715-7.805-21.88-28.853-37.525-53.445-37.239-30.791.359-55.36 25.898-55.36 56.692v12.83h-31.946v-13.506c0-48.504 39.462-87.965 87.97-87.965 38.31 0 70.98 24.617 83.019 58.863 3.615 10.281-4.094 21.04-14.991 21.04z" fill="url(#SVGID_12_)"/><path d="m323.925 126.273h-4.451c-6.776 0-12.724-4.333-15.001-10.715-7.805-21.88-28.853-37.525-53.445-37.239-30.791.359-55.36 25.898-55.36 56.692v12.83h-16.95v-11.202c0-40.235 32.734-72.974 72.974-72.974 36.715 0 67.186 27.265 72.233 62.608z" fill="url(#SVGID_13_)"/></g><g><g><path d="m360.354 117.503c-1.384-3.549.37-7.548 3.919-8.933l10.015-3.907c3.549-1.384 7.548.37 8.933 3.919 1.384 3.549-.37 7.548-3.919 8.933l-10.015 3.907c-3.549 1.385-7.549-.37-8.933-3.919z" fill="url(#SVGID_14_)"/></g><g><path d="m359.118 131.804c1.973-3.259 6.214-4.301 9.473-2.329l9.196 5.567c3.259 1.973 4.301 6.214 2.329 9.473-1.973 3.259-6.214 4.301-9.473 2.329l-9.196-5.567c-3.259-1.973-4.302-6.215-2.329-9.473z" fill="url(#SVGID_15_)"/></g><g><path d="m349.762 107.817c3.658 1.062 7.485-1.042 8.547-4.7l2.998-10.323c1.062-3.658-1.042-7.485-4.701-8.547-3.658-1.062-7.485 1.042-8.547 4.701l-2.998 10.323c-1.062 3.657 1.042 7.484 4.701 8.546z" fill="url(#SVGID_16_)"/></g></g><g><g><path d="m336.111 309.27h-162.222c-12.333 0-22.33-9.998-22.33-22.33v-124.13c0-12.333 9.998-22.33 22.33-22.33h162.223c12.333 0 22.33 9.998 22.33 22.33v124.13c0 12.332-9.998 22.33-22.331 22.33z" fill="url(#SVGID_17_)"/><path d="m294.656 208.965c0-21.901-17.755-39.656-39.656-39.656s-39.656 17.755-39.656 39.656c0 15.505 8.904 28.922 21.872 35.443v18.249c0 9.822 7.962 17.784 17.784 17.784 9.822 0 17.784-7.962 17.784-17.784v-18.249c12.969-6.521 21.872-19.938 21.872-35.443z" fill="url(#SVGID_18_)"/><path d="m255 270.131c-4.121 0-7.475-3.353-7.475-7.475v-24.605l-5.678-2.855c-9.988-5.022-16.193-15.073-16.193-26.232 0-16.182 13.165-29.346 29.346-29.346s29.346 13.165 29.346 29.346c0 11.158-6.205 21.21-16.193 26.232l-5.678 2.855v24.605c0 4.121-3.354 7.475-7.475 7.475z" fill="url(#SVGID_19_)"/><path d="m151.558 253.143v33.796c0 12.333 9.998 22.33 22.33 22.33h162.223c12.333 0 22.33-9.998 22.33-22.33v-33.796z" fill="url(#SVGID_20_)"/></g></g><path d="m0 394.18v46.812c0 12.503 10.135 22.638 22.638 22.638h464.724c12.503 0 22.638-10.135 22.638-22.638v-46.812z" fill="url(#SVGID_21_)"/></g></svg>